<?xml version="1.0" encoding="utf-8"?>
<!-- Generator: Adobe Illustrator 19.0.0, SVG Export Plug-In . SVG Version: 6.00 Build 0)  -->
<svg version="1.1" id="Layer_1" xmlns="http://www.w3.org/2000/svg" xmlns:xlink="http://www.w3.org/1999/xlink" x="0px" y="0px"
	 viewBox="0 0 120 85" style="enable-background:new 0 0 120 85;" xml:space="preserve">
<style type="text/css">
	.st0{opacity:0.9618;fill:#0082C6;}
	.st1{opacity:0.7014;fill:url(#SVGID_1_);}
	.st2{opacity:0.8638;fill:url(#SVGID_2_);}
	.st3{opacity:0.7009;fill:url(#SVGID_3_);}
	.st4{opacity:0.824;fill:url(#SVGID_4_);}
	.st5{opacity:0.8475;fill:url(#SVGID_5_);}
	.st6{opacity:0.8087;fill:url(#SVGID_6_);}
	.st7{opacity:0.9522;fill:url(#SVGID_7_);}
	.st8{opacity:0.8285;fill:url(#SVGID_8_);}
	.st9{opacity:0.8289;fill:url(#SVGID_9_);}
	.st10{opacity:0.9171;fill:url(#SVGID_10_);}
	.st11{opacity:0.57;fill:url(#SVGID_11_);}
	.st12{opacity:0.8604;fill:url(#SVGID_12_);}
	.st13{opacity:0.62;fill:url(#SVGID_13_);}
	.st14{opacity:0.9419;fill:url(#SVGID_14_);}
	.st15{opacity:0.832;fill:url(#SVGID_15_);}
	.st16{opacity:0.9618;fill:url(#SVGID_16_);}
	.st17{opacity:0.71;}
	.st18{fill:#FFFFFF;}
	.st19{opacity:0.34;}
	.st20{opacity:0.7;}
	.st21{fill:#0082C6;}
	.st22{opacity:0.3;}
</style>
<g>
	<rect class="st0" width="120" height="85"/>
	<linearGradient id="SVGID_1_" gradientUnits="userSpaceOnUse" x1="11.6325" y1="27.8873" x2="27.4163" y2="12.1034">
		<stop  offset="0" style="stop-color:#66B4DD"/>
		<stop  offset="9.826846e-002" style="stop-color:#5DB1DC"/>
		<stop  offset="0.2617" style="stop-color:#43A9DA"/>
		<stop  offset="0.4687" style="stop-color:#1A9CD6"/>
		<stop  offset="0.5843" style="stop-color:#0094D3"/>
		<stop  offset="1" style="stop-color:#007FC3"/>
	</linearGradient>
	<ellipse class="st1" cx="19.5" cy="20" rx="11.1" ry="11.2"/>
	
		<linearGradient id="SVGID_2_" gradientUnits="userSpaceOnUse" x1="-459.2773" y1="-374.255" x2="-429.0995" y2="-404.4329" gradientTransform="matrix(0.9317 -0.3633 0.3633 0.9317 561.8944 270.8377)">
		<stop  offset="0" style="stop-color:#66B4DD"/>
		<stop  offset="9.826846e-002" style="stop-color:#5DB1DC"/>
		<stop  offset="0.2617" style="stop-color:#43A9DA"/>
		<stop  offset="0.4687" style="stop-color:#1A9CD6"/>
		<stop  offset="0.5843" style="stop-color:#0094D3"/>
		<stop  offset="1" style="stop-color:#007FC3"/>
	</linearGradient>
	<path class="st2" d="M13.1,85c8.2-5.4,11.8-16,8.1-25.6C17.7,50.5,9,45.2,0,45.9V85H13.1z"/>
	
		<linearGradient id="SVGID_3_" gradientUnits="userSpaceOnUse" x1="-1098.1522" y1="423.2254" x2="-1074.4146" y2="399.4878" gradientTransform="matrix(-0.9761 -0.2172 0.2172 -0.9761 -1149.4329 199.3583)">
		<stop  offset="0" style="stop-color:#66B4DD"/>
		<stop  offset="9.826846e-002" style="stop-color:#5DB1DC"/>
		<stop  offset="0.2617" style="stop-color:#43A9DA"/>
		<stop  offset="0.4687" style="stop-color:#1A9CD6"/>
		<stop  offset="0.5843" style="stop-color:#0094D3"/>
		<stop  offset="1" style="stop-color:#007FC3"/>
	</linearGradient>
	<path class="st3" d="M3.1,16.1c-1-0.2-2.1-0.4-3.1-0.4v33.7c7.5-0.2,14.1-5.5,15.8-13.2C17.8,27.1,12.1,18.1,3.1,16.1z"/>
	
		<linearGradient id="SVGID_4_" gradientUnits="userSpaceOnUse" x1="24.9233" y1="-390.083" x2="47.8064" y2="-412.9661" gradientTransform="matrix(0.673 -0.7397 0.7397 0.673 328.2202 375.7822)">
		<stop  offset="0" style="stop-color:#66B4DD"/>
		<stop  offset="9.826846e-002" style="stop-color:#5DB1DC"/>
		<stop  offset="0.2617" style="stop-color:#43A9DA"/>
		<stop  offset="0.4687" style="stop-color:#1A9CD6"/>
		<stop  offset="0.5843" style="stop-color:#0094D3"/>
		<stop  offset="1" style="stop-color:#007FC3"/>
	</linearGradient>
	<path class="st4" d="M70.5,85c2.6-6.2,1.2-13.6-4-18.3c-6.6-6-16.7-5.5-22.7,1.1c-4.4,4.8-5.3,11.6-2.9,17.2H70.5z"/>
	
		<linearGradient id="SVGID_5_" gradientUnits="userSpaceOnUse" x1="238.5414" y1="-332.8945" x2="264.4638" y2="-358.8169" gradientTransform="matrix(-0.4546 -0.8907 0.8907 -0.4546 455.9402 129.5559)">
		<stop  offset="0" style="stop-color:#66B4DD"/>
		<stop  offset="9.826846e-002" style="stop-color:#5DB1DC"/>
		<stop  offset="0.2617" style="stop-color:#43A9DA"/>
		<stop  offset="0.4687" style="stop-color:#1A9CD6"/>
		<stop  offset="0.5843" style="stop-color:#0094D3"/>
		<stop  offset="1" style="stop-color:#007FC3"/>
	</linearGradient>
	<path class="st5" d="M25.2,46.3c9-4.6,20-1,24.6,8.1c4.6,9.1,1,20.2-8,24.8c-9,4.6-20,1-24.6-8.1C12.6,62.1,16.2,51,25.2,46.3z"/>
	
		<linearGradient id="SVGID_6_" gradientUnits="userSpaceOnUse" x1="-713.7423" y1="271.0111" x2="-682.7892" y2="240.0579" gradientTransform="matrix(0.6506 -0.7594 0.7594 0.6506 336.0645 -672.0318)">
		<stop  offset="0" style="stop-color:#66B4DD"/>
		<stop  offset="9.826846e-002" style="stop-color:#5DB1DC"/>
		<stop  offset="0.2617" style="stop-color:#43A9DA"/>
		<stop  offset="0.4687" style="stop-color:#1A9CD6"/>
		<stop  offset="0.5843" style="stop-color:#0094D3"/>
		<stop  offset="1" style="stop-color:#007FC3"/>
	</linearGradient>
	<path class="st6" d="M89.9,7.9c9.1,7.9,10.2,21.7,2.4,30.9c-7.8,9.2-21.5,10.2-30.6,2.4c-9.1-7.9-10.2-21.7-2.4-30.9
		C67.1,1.1,80.8,0,89.9,7.9z"/>
	
		<linearGradient id="SVGID_7_" gradientUnits="userSpaceOnUse" x1="-306.2825" y1="302.6809" x2="-284.1198" y2="280.5182" gradientTransform="matrix(-0.3903 0.9207 -0.9207 -0.3903 225.0516 396.6082)">
		<stop  offset="0" style="stop-color:#66B4DD"/>
		<stop  offset="9.826846e-002" style="stop-color:#5DB1DC"/>
		<stop  offset="0.2617" style="stop-color:#43A9DA"/>
		<stop  offset="0.4687" style="stop-color:#1A9CD6"/>
		<stop  offset="0.5843" style="stop-color:#0094D3"/>
		<stop  offset="1" style="stop-color:#007FC3"/>
	</linearGradient>
	<path class="st7" d="M60.7,0c-1.3,1.4-2.4,3-3.2,4.9c-3.4,8,0.3,17.2,8.3,20.6c7.9,3.4,17.1-0.3,20.4-8.3c2.5-6,1.1-12.7-3.2-17.1
		H60.7z"/>
	
		<linearGradient id="SVGID_8_" gradientUnits="userSpaceOnUse" x1="-632.2023" y1="-323.8105" x2="-611.1946" y2="-344.8182" gradientTransform="matrix(0.5922 0.8058 -0.8058 0.5922 119.1329 763.0005)">
		<stop  offset="0" style="stop-color:#66B4DD"/>
		<stop  offset="9.826846e-002" style="stop-color:#5DB1DC"/>
		<stop  offset="0.2617" style="stop-color:#43A9DA"/>
		<stop  offset="0.4687" style="stop-color:#1A9CD6"/>
		<stop  offset="0.5843" style="stop-color:#0094D3"/>
		<stop  offset="1" style="stop-color:#007FC3"/>
	</linearGradient>
	<path class="st8" d="M29.1,76.1c-6.6,4.9-15.9,3.5-20.8-3.2c-4.9-6.7-3.4-16,3.2-20.9c6.6-4.9,15.9-3.5,20.8,3.2
		C37.2,61.9,35.8,71.2,29.1,76.1z"/>
	
		<linearGradient id="SVGID_9_" gradientUnits="userSpaceOnUse" x1="-516.0153" y1="234.7767" x2="-497.4419" y2="216.2033" gradientTransform="matrix(0.2588 0.9659 -0.9659 0.2588 356.7335 442.0966)">
		<stop  offset="0" style="stop-color:#66B4DD"/>
		<stop  offset="9.826846e-002" style="stop-color:#5DB1DC"/>
		<stop  offset="0.2617" style="stop-color:#43A9DA"/>
		<stop  offset="0.4687" style="stop-color:#1A9CD6"/>
		<stop  offset="0.5843" style="stop-color:#0094D3"/>
		<stop  offset="1" style="stop-color:#007FC3"/>
	</linearGradient>
	<path class="st9" d="M20.5,7.6c-0.9-3.2-2.8-5.9-5.4-7.6H0.5C0.4,0.1,0.2,0.3,0,0.4v21.2c3.1,2.3,7.2,3.2,11.2,2.2
		C18.2,21.9,22.3,14.6,20.5,7.6z"/>
	
		<linearGradient id="SVGID_10_" gradientUnits="userSpaceOnUse" x1="-560.0811" y1="-95.9672" x2="-540.0597" y2="-115.9886" gradientTransform="matrix(0.9154 0.4025 -0.4025 0.9154 576.9056 393.9508)">
		<stop  offset="0" style="stop-color:#66B4DD"/>
		<stop  offset="9.826846e-002" style="stop-color:#5DB1DC"/>
		<stop  offset="0.2617" style="stop-color:#43A9DA"/>
		<stop  offset="0.4687" style="stop-color:#1A9CD6"/>
		<stop  offset="0.5843" style="stop-color:#0094D3"/>
		<stop  offset="1" style="stop-color:#007FC3"/>
	</linearGradient>
	<path class="st10" d="M120,85V65.2c-6.3-1.2-12.8,2.1-15.5,8.3c-1.7,3.8-1.5,8,0,11.5H120z"/>
	
		<linearGradient id="SVGID_11_" gradientUnits="userSpaceOnUse" x1="306.9565" y1="160.0577" x2="341.4202" y2="125.5941" gradientTransform="matrix(-0.7132 -0.701 0.701 -0.7132 205.2157 374.9233)">
		<stop  offset="0" style="stop-color:#66B4DD"/>
		<stop  offset="9.826846e-002" style="stop-color:#5DB1DC"/>
		<stop  offset="0.2617" style="stop-color:#43A9DA"/>
		<stop  offset="0.4687" style="stop-color:#1A9CD6"/>
		<stop  offset="0.5843" style="stop-color:#0094D3"/>
		<stop  offset="1" style="stop-color:#007FC3"/>
	</linearGradient>
	<path class="st11" d="M56.7,28.6c9.4-9.7,24.9-9.8,34.5-0.3c9.6,9.5,9.7,25.1,0.3,34.8c-9.4,9.7-24.9,9.8-34.5,0.3
		C47.4,53.8,47.3,38.3,56.7,28.6z"/>
	
		<linearGradient id="SVGID_12_" gradientUnits="userSpaceOnUse" x1="-566.4165" y1="-619.4525" x2="-539.7475" y2="-646.1215" gradientTransform="matrix(0.7134 -0.7007 0.7007 0.7134 956.7283 91.7524)">
		<stop  offset="0" style="stop-color:#66B4DD"/>
		<stop  offset="9.826846e-002" style="stop-color:#5DB1DC"/>
		<stop  offset="0.2617" style="stop-color:#43A9DA"/>
		<stop  offset="0.4687" style="stop-color:#1A9CD6"/>
		<stop  offset="0.5843" style="stop-color:#0094D3"/>
		<stop  offset="1" style="stop-color:#007FC3"/>
	</linearGradient>
	<path class="st12" d="M120,18.5c-3.4,5.9-3.4,13.2,0,19.1V18.5z"/>
	
		<linearGradient id="SVGID_13_" gradientUnits="userSpaceOnUse" x1="-814.8716" y1="-320.9637" x2="-781.8732" y2="-353.9621" gradientTransform="matrix(0.9928 -0.1196 0.1196 0.9928 944.3944 251.1477)">
		<stop  offset="0" style="stop-color:#66B4DD"/>
		<stop  offset="9.826846e-002" style="stop-color:#5DB1DC"/>
		<stop  offset="0.2617" style="stop-color:#43A9DA"/>
		<stop  offset="0.4687" style="stop-color:#1A9CD6"/>
		<stop  offset="0.5843" style="stop-color:#0094D3"/>
		<stop  offset="1" style="stop-color:#007FC3"/>
	</linearGradient>
	<path class="st13" d="M120,0H93.5c-2.9,4.4-4.3,9.9-3.6,15.6c1.5,12.8,13.1,22,25.8,20.4c1.5-0.2,2.9-0.5,4.3-0.9V0z"/>
	
		<linearGradient id="SVGID_14_" gradientUnits="userSpaceOnUse" x1="-465.9246" y1="-184.5484" x2="-450.0576" y2="-200.4154" gradientTransform="matrix(0.7983 -0.6023 0.6023 0.7983 555.7199 -131.7393)">
		<stop  offset="0" style="stop-color:#66B4DD"/>
		<stop  offset="9.826846e-002" style="stop-color:#5DB1DC"/>
		<stop  offset="0.2617" style="stop-color:#43A9DA"/>
		<stop  offset="0.4687" style="stop-color:#1A9CD6"/>
		<stop  offset="0.5843" style="stop-color:#0094D3"/>
		<stop  offset="1" style="stop-color:#007FC3"/>
	</linearGradient>
	<path class="st14" d="M67.3,0c3.4,1.9,7.6,2,11.1,0H67.3z"/>
	
		<linearGradient id="SVGID_15_" gradientUnits="userSpaceOnUse" x1="-895.7629" y1="438.7535" x2="-873.0475" y2="416.0381" gradientTransform="matrix(0.1928 0.9812 -0.9812 0.1928 691.2945 833.0395)">
		<stop  offset="0" style="stop-color:#66B4DD"/>
		<stop  offset="9.826846e-002" style="stop-color:#5DB1DC"/>
		<stop  offset="0.2617" style="stop-color:#43A9DA"/>
		<stop  offset="0.4687" style="stop-color:#1A9CD6"/>
		<stop  offset="0.5843" style="stop-color:#0094D3"/>
		<stop  offset="1" style="stop-color:#007FC3"/>
	</linearGradient>
	<path class="st15" d="M104.5,63.5c-8.7,1.7-17.1-4-18.8-12.7c-1.7-8.8,3.9-17.2,12.6-19c8.7-1.7,17.1,4,18.8,12.7
		C118.8,53.3,113.2,61.8,104.5,63.5z"/>
	
		<linearGradient id="SVGID_16_" gradientUnits="userSpaceOnUse" x1="-143.4707" y1="142.1359" x2="-123.5199" y2="122.1851" gradientTransform="matrix(-0.7689 -0.6394 0.6394 -0.7689 -142.7727 27.8858)">
		<stop  offset="0" style="stop-color:#66B4DD"/>
		<stop  offset="9.826846e-002" style="stop-color:#5DB1DC"/>
		<stop  offset="0.2617" style="stop-color:#43A9DA"/>
		<stop  offset="0.4687" style="stop-color:#1A9CD6"/>
		<stop  offset="0.5843" style="stop-color:#0094D3"/>
		<stop  offset="1" style="stop-color:#007FC3"/>
	</linearGradient>
	<path class="st16" d="M34.1,0c-0.3,0.3-0.5,0.5-0.7,0.8c-5,6-4.2,15,1.8,20c6,5,14.9,4.2,19.9-1.8c4.7-5.7,4.2-13.9-0.7-19H34.1z"
		/>
	<g class="st17">
		<path class="st18" d="M21.7,52.4h3.7c0.3,0,0.6-0.1,0.9-0.2h-5.5C21.1,52.3,21.4,52.4,21.7,52.4z"/>
		<path class="st18" d="M19.1,51.8H28c0.1,0,0.3-0.1,0.4-0.2h-9.7C18.8,51.7,19,51.8,19.1,51.8z"/>
		<path class="st18" d="M17.6,51.2h11.8c0.1,0,0.2-0.1,0.3-0.2H17.3C17.4,51.1,17.5,51.2,17.6,51.2z"/>
		<path class="st18" d="M16.5,50.6h14.1c0.1,0,0.2-0.1,0.2-0.2H16.2C16.3,50.5,16.4,50.6,16.5,50.6z"/>
		<path class="st18" d="M15.6,50h16c0.1,0,0.1-0.1,0.2-0.2H15.3C15.4,49.9,15.5,50,15.6,50z"/>
		<path class="st18" d="M14.8,49.4h17.6c0.1,0,0.1-0.1,0.2-0.2H14.6C14.6,49.3,14.7,49.4,14.8,49.4z"/>
		<path class="st18" d="M14.1,48.8H33c0.1,0,0.1-0.1,0.2-0.2H13.9C14,48.7,14,48.7,14.1,48.8z"/>
		<path class="st18" d="M13.5,48.2h20.2c0,0,0.1-0.1,0.1-0.2H13.3C13.4,48.1,13.4,48.1,13.5,48.2z"/>
		<path class="st18" d="M12.9,47.6h21.2c0,0,0.1-0.1,0.1-0.2H12.8C12.8,47.5,12.9,47.5,12.9,47.6z"/>
		<path class="st18" d="M12.4,47h22.2c0-0.1,0.1-0.1,0.1-0.2H12.3C12.4,46.9,12.4,46.9,12.4,47z"/>
		<path class="st18" d="M12,46.4h23.1c0,0,0.1-0.1,0.1-0.2H11.9C11.9,46.3,12,46.3,12,46.4z"/>
		<path class="st18" d="M11.6,45.8h23.8c0,0,0.1-0.1,0.1-0.2h-24C11.6,45.7,11.6,45.7,11.6,45.8z"/>
		<path class="st18" d="M11.3,45.2h24.5c0,0,0.1-0.1,0.1-0.2H11.2C11.2,45.1,11.3,45.1,11.3,45.2z"/>
		<path class="st18" d="M11,44.6h25.1c0,0,0-0.1,0.1-0.2H10.9C10.9,44.5,11,44.5,11,44.6z"/>
		<path class="st18" d="M10.7,44h25.7c0,0,0-0.1,0.1-0.2H10.6C10.7,43.9,10.7,43.9,10.7,44z"/>
		<path class="st18" d="M10.5,43.4h26.2c0,0,0-0.1,0.1-0.2H10.4C10.4,43.3,10.4,43.3,10.5,43.4z"/>
		<path class="st18" d="M10.3,42.8h26.6c0-0.1,0-0.1,0-0.2H10.2C10.2,42.7,10.2,42.7,10.3,42.8z"/>
		<path class="st18" d="M10.1,42.2H37c0,0,0-0.1,0-0.2H10C10.1,42.1,10.1,42.1,10.1,42.2z"/>
		<path class="st18" d="M9.9,41.6h27.2c0,0,0,0,0,0c0,0,0-0.1,0-0.1H9.9C9.9,41.5,9.9,41.5,9.9,41.6z"/>
		<path class="st18" d="M9.8,41h27.5c0-0.1,0-0.1,0-0.2H9.8C9.8,40.9,9.8,40.9,9.8,41z"/>
		<path class="st18" d="M9.7,40.4h27.7c0-0.1,0-0.1,0-0.2H9.7C9.7,40.3,9.7,40.3,9.7,40.4z"/>
		<path class="st18" d="M9.6,39.8h27.8c0-0.1,0-0.1,0-0.2H9.6C9.6,39.7,9.6,39.7,9.6,39.8z"/>
		<path class="st18" d="M9.6,39.1h27.9c0-0.1,0-0.1,0-0.2H9.6C9.6,39,9.6,39.1,9.6,39.1z"/>
		<path class="st18" d="M9.6,38.5h27.9c0-0.1,0-0.1,0-0.2H9.6C9.6,38.4,9.6,38.5,9.6,38.5z"/>
		<path class="st18" d="M9.6,37.9h27.9c0-0.1,0-0.1,0-0.2H9.6C9.6,37.8,9.6,37.9,9.6,37.9z"/>
		<path class="st18" d="M9.6,37.3h27.8c0-0.1,0-0.1,0-0.2H9.7C9.6,37.2,9.6,37.3,9.6,37.3z"/>
		<path class="st18" d="M9.7,36.7h27.7c0-0.1,0-0.1,0-0.2H9.7C9.7,36.6,9.7,36.7,9.7,36.7z"/>
		<path class="st18" d="M9.8,36.1h27.5c0-0.1,0-0.1,0-0.2H9.8C9.8,36,9.8,36.1,9.8,36.1z"/>
		<path class="st18" d="M9.9,35.4c0,0,0,0.1,0,0.1h27.3c0-0.1,0-0.1,0-0.2L9.9,35.4C9.9,35.4,9.9,35.4,9.9,35.4z"/>
		<path class="st18" d="M10,34.9h27c0-0.1,0-0.1,0-0.2H10.1C10.1,34.8,10.1,34.9,10,34.9z"/>
		<path class="st18" d="M10.2,34.3h26.7c0-0.1,0-0.1,0-0.2H10.3C10.2,34.2,10.2,34.3,10.2,34.3z"/>
		<path class="st18" d="M10.4,33.7h26.3c0-0.1,0-0.1-0.1-0.2H10.5C10.4,33.6,10.4,33.7,10.4,33.7z"/>
		<path class="st18" d="M10.6,33.1h25.8c0-0.1,0-0.1-0.1-0.2H10.7C10.7,33,10.7,33.1,10.6,33.1z"/>
		<path class="st18" d="M10.9,32.5h25.3c0-0.1,0-0.1-0.1-0.2H11C11,32.4,10.9,32.5,10.9,32.5z"/>
		<path class="st18" d="M11.2,31.9h24.7c0-0.1-0.1-0.1-0.1-0.2H11.3C11.3,31.8,11.2,31.9,11.2,31.9z"/>
		<path class="st18" d="M11.5,31.3h24c0-0.1-0.1-0.1-0.1-0.2H11.6C11.6,31.2,11.6,31.3,11.5,31.3z"/>
		<path class="st18" d="M11.9,30.7h23.3c0-0.1-0.1-0.1-0.1-0.2H12C12,30.6,11.9,30.7,11.9,30.7z"/>
		<path class="st18" d="M12.3,30.1h22.4c0-0.1-0.1-0.1-0.1-0.2H12.4C12.4,30,12.4,30,12.3,30.1z"/>
		<path class="st18" d="M12.8,29.5h21.5c0-0.1-0.1-0.1-0.1-0.2H12.9C12.9,29.4,12.8,29.4,12.8,29.5z"/>
		<path class="st18" d="M13.3,28.9h20.4c0-0.1-0.1-0.1-0.1-0.2H13.5C13.4,28.8,13.4,28.8,13.3,28.9z"/>
		<path class="st18" d="M13.9,28.3h19.3c-0.1-0.1-0.1-0.1-0.2-0.2H14.1C14,28.2,14,28.2,13.9,28.3z"/>
		<path class="st18" d="M14.6,27.7h17.9c-0.1-0.1-0.1-0.1-0.2-0.2H14.8C14.7,27.6,14.6,27.6,14.6,27.7z"/>
		<path class="st18" d="M15.3,27.1h16.4c-0.1-0.1-0.1-0.1-0.2-0.2h-16C15.5,27,15.4,27,15.3,27.1z"/>
		<path class="st18" d="M16.2,26.5h14.6c-0.1-0.1-0.2-0.1-0.2-0.2H16.5C16.4,26.4,16.3,26.4,16.2,26.5z"/>
		<path class="st18" d="M17.3,25.9h12.5c-0.1-0.1-0.2-0.1-0.3-0.2H17.6C17.5,25.8,17.4,25.8,17.3,25.9z"/>
		<path class="st18" d="M18.7,25.3h9.7c-0.1-0.1-0.3-0.1-0.4-0.2h-8.9C19,25.2,18.8,25.2,18.7,25.3z"/>
		<path class="st18" d="M21.7,24.5c-0.3,0-0.6,0.1-0.9,0.2h5.5c-0.3-0.1-0.6-0.1-0.9-0.2H21.7z"/>
	</g>
	<g class="st19">
		<path class="st18" d="M34.2,8.6l2.6-2.6c0.2-0.2,0.4-0.5,0.5-0.7l-3.9,3.9C33.8,8.9,34,8.7,34.2,8.6z"/>
		<path class="st18" d="M32,10l6.3-6.3c0.1-0.1,0.1-0.3,0.2-0.4l-6.9,6.9C31.7,10.1,31.9,10,32,10z"/>
		<path class="st18" d="M30.5,10.6l8.4-8.4C38.9,2.1,39,2,39,1.8l-8.8,8.9C30.3,10.7,30.4,10.7,30.5,10.6z"/>
		<path class="st18" d="M29.3,11l10-10.1c0-0.1,0-0.2,0.1-0.3L29,11.1C29.1,11.1,29.2,11,29.3,11z"/>
		<path class="st18" d="M39.1,0L27.9,11.3c0.1,0,0.2,0,0.3,0L39.3,0H39.1z"/>
		<path class="st18" d="M38.3,0L27,11.4c0.1,0,0.2,0,0.2,0L38.5,0H38.3z"/>
		<path class="st18" d="M37.4,0L26.1,11.5c0.1,0,0.1,0,0.2,0L37.6,0H37.4z"/>
		<path class="st18" d="M36.6,0L25.2,11.4c0.1,0,0.1,0,0.2,0L36.8,0H36.6z"/>
		<path class="st18" d="M35.7,0L24.4,11.4c0.1,0,0.1,0,0.2,0L36,0H35.7z"/>
		<path class="st18" d="M34.9,0L23.7,11.3c0.1,0,0.1,0,0.2,0L35.1,0H34.9z"/>
		<path class="st18" d="M34.1,0L23,11.2c0.1,0,0.1,0,0.2,0L34.3,0H34.1z"/>
		<path class="st18" d="M33.2,0L22.3,11c0.1,0,0.1,0,0.2,0L33.4,0H33.2z"/>
		<path class="st18" d="M32.4,0L21.6,10.8c0.1,0,0.1,0,0.2,0L32.6,0H32.4z"/>
		<path class="st18" d="M31.5,0L21,10.6c0.1,0,0.1,0,0.2,0.1L31.7,0H31.5z"/>
		<path class="st18" d="M30.7,0L20.4,10.4c0,0,0.1,0,0.1,0.1L30.9,0H30.7z"/>
		<path class="st18" d="M29.8,0l-10,10.1c0,0,0.1,0,0.1,0.1L30,0H29.8z"/>
		<path class="st18" d="M29,0l-9.7,9.8c0,0,0.1,0,0.1,0.1L29.2,0H29z"/>
		<path class="st18" d="M28.1,0l-9.4,9.5c0,0,0.1,0.1,0.1,0.1L28.3,0H28.1z"/>
		<path class="st18" d="M27.3,0l-9.1,9.2c0,0,0.1,0.1,0.1,0.1L27.5,0H27.3z"/>
		<path class="st18" d="M26.4,0l-8.8,8.9c0,0,0.1,0.1,0.1,0.1L26.7,0H26.4z"/>
		<path class="st18" d="M25.6,0l-8.4,8.5c0,0,0.1,0.1,0.1,0.1L25.8,0H25.6z"/>
		<path class="st18" d="M24.8,0l-8,8.1c0,0,0.1,0.1,0.1,0.1L25,0H24.8z"/>
		<path class="st18" d="M23.9,0l-7.6,7.7c0,0,0.1,0.1,0.1,0.1L24.1,0H23.9z"/>
		<path class="st18" d="M23.1,0l-7.2,7.3c0,0,0.1,0.1,0.1,0.1L23.3,0H23.1z"/>
		<path class="st18" d="M22.2,0l-6.8,6.8c0,0,0.1,0.1,0.1,0.1l6.9-7H22.2z"/>
		<path class="st18" d="M21.4,0L15,6.4c0,0,0.1,0.1,0.1,0.1L21.6,0H21.4z"/>
		<path class="st18" d="M20.5,0l-5.9,5.9c0,0,0.1,0.1,0.1,0.1l6-6H20.5z"/>
		<path class="st18" d="M19.7,0l-5.4,5.4c0,0,0.1,0.1,0.1,0.1L19.9,0H19.7z"/>
		<path class="st18" d="M18.8,0L14,4.9c0,0,0,0,0,0C14,5,14,5,14,5l5-5H18.8z"/>
		<path class="st18" d="M18,0l-4.3,4.4c0,0,0.1,0.1,0.1,0.1L18.2,0H18z"/>
		<path class="st18" d="M17.1,0l-3.8,3.8c0,0,0,0.1,0.1,0.1l3.9-4H17.1z"/>
		<path class="st18" d="M16.3,0l-3.2,3.2c0,0,0,0.1,0.1,0.1L16.5,0H16.3z"/>
		<path class="st18" d="M15.4,0l-2.6,2.7c0,0.1,0,0.1,0.1,0.2L15.7,0H15.4z"/>
		<path class="st18" d="M14.6,0l-2,2c0,0.1,0,0.1,0.1,0.2L14.8,0H14.6z"/>
		<path class="st18" d="M13.8,0l-1.4,1.4c0,0.1,0,0.1,0,0.2L14,0H13.8z"/>
		<path class="st18" d="M12.9,0l-0.7,0.7c0,0.1,0,0.1,0,0.2L13.1,0H12.9z"/>
	</g>
	<g class="st20">
		<path class="st21" d="M120,58.6h-5.6c0.3,0.1,0.7,0.1,1,0.2h4.1C119.7,58.7,119.8,58.7,120,58.6L120,58.6z"/>
		<path class="st21" d="M120,57.9h-7.9c0.2,0.1,0.3,0.1,0.5,0.2h7.4V57.9z"/>
		<path class="st21" d="M120,57.3h-9.4c0.1,0.1,0.2,0.1,0.3,0.2h9.1V57.3z"/>
		<path class="st21" d="M120,56.6h-10.6c0.1,0.1,0.2,0.1,0.3,0.2H120V56.6z"/>
		<path class="st21" d="M120,55.9h-11.6c0.1,0.1,0.2,0.1,0.2,0.2H120V55.9z"/>
		<path class="st21" d="M120,55.3h-12.5c0.1,0.1,0.1,0.1,0.2,0.2H120V55.3z"/>
		<path class="st21" d="M120,54.6h-13.2c0.1,0.1,0.1,0.1,0.2,0.2h13V54.6z"/>
		<path class="st21" d="M120,53.9h-13.8c0.1,0.1,0.1,0.1,0.2,0.2H120V53.9z"/>
		<path class="st21" d="M120,53.3h-14.4c0,0.1,0.1,0.1,0.1,0.2H120V53.3z"/>
		<path class="st21" d="M120,52.6h-14.9c0,0.1,0.1,0.1,0.1,0.2H120V52.6z"/>
		<path class="st21" d="M120,51.9h-15.4c0,0.1,0.1,0.1,0.1,0.2H120V51.9z"/>
		<path class="st21" d="M120,51.3h-15.8c0,0.1,0.1,0.1,0.1,0.2H120V51.3z"/>
		<path class="st21" d="M120,50.6h-16.2c0,0.1,0.1,0.1,0.1,0.2H120V50.6z"/>
		<path class="st21" d="M120,49.9h-16.5c0,0.1,0.1,0.1,0.1,0.2H120V49.9z"/>
		<path class="st21" d="M120,49.3h-16.8c0,0.1,0,0.1,0.1,0.2H120V49.3z"/>
		<path class="st21" d="M120,48.6h-17.1c0,0.1,0,0.1,0.1,0.2h17V48.6z"/>
		<path class="st21" d="M120,47.9h-17.3c0,0.1,0,0.1,0.1,0.2H120V47.9z"/>
		<path class="st21" d="M120,47.3h-17.5c0,0.1,0,0.1,0,0.2H120V47.3z"/>
		<path class="st21" d="M120,46.6h-17.6c0,0.1,0,0.1,0,0.2H120V46.6z"/>
		<path class="st21" d="M120,45.9h-17.7c0,0.1,0,0.1,0,0.2H120V45.9z"/>
		<path class="st21" d="M120,45.3h-17.8c0,0.1,0,0.1,0,0.2H120V45.3z"/>
		<path class="st21" d="M120,44.6h-17.9c0,0.1,0,0.1,0,0.2H120V44.6z"/>
		<path class="st21" d="M120,44h-17.9c0,0.1,0,0.1,0,0.2H120V44z"/>
		<path class="st21" d="M120,43.3h-18c0,0.1,0,0.1,0,0.2h18V43.3z"/>
		<path class="st21" d="M120,42.6h-17.9c0,0.1,0,0.1,0,0.2H120V42.6z"/>
		<path class="st21" d="M120,42h-17.9c0,0.1,0,0.1,0,0.2H120V42z"/>
		<path class="st21" d="M120,41.3h-17.8c0,0.1,0,0.1,0,0.2H120V41.3z"/>
		<path class="st21" d="M120,40.6h-17.7c0,0.1,0,0.1,0,0.2H120V40.6z"/>
		<path class="st21" d="M120,40h-17.6c0,0,0,0,0,0c0,0,0,0.1,0,0.1H120V40z"/>
		<path class="st21" d="M120,39.3h-17.4c0,0.1,0,0.1,0,0.2H120V39.3z"/>
		<path class="st21" d="M120,38.6h-17.2c0,0.1,0,0.1-0.1,0.2H120V38.6z"/>
		<path class="st21" d="M120,38h-17c0,0.1,0,0.1-0.1,0.2H120V38z"/>
		<path class="st21" d="M120,37.3h-16.7c0,0.1,0,0.1-0.1,0.2H120V37.3z"/>
		<path class="st21" d="M120,36.6h-16.4c0,0.1-0.1,0.1-0.1,0.2H120V36.6z"/>
		<path class="st21" d="M120,36h-16.1c0,0.1-0.1,0.1-0.1,0.2H120V36z"/>
		<path class="st21" d="M120,35.3h-15.7c0,0.1-0.1,0.1-0.1,0.2H120V35.3z"/>
		<path class="st21" d="M120,34.6h-15.3c0,0.1-0.1,0.1-0.1,0.2H120V34.6z"/>
		<path class="st21" d="M120,34h-14.8c0,0.1-0.1,0.1-0.1,0.2H120V34z"/>
		<path class="st21" d="M120,33.3h-14.3c0,0.1-0.1,0.1-0.1,0.2H120V33.3z"/>
		<path class="st21" d="M120,32.6h-13.7c-0.1,0.1-0.1,0.1-0.2,0.2H120V32.6z"/>
		<path class="st21" d="M120,32h-13c-0.1,0.1-0.1,0.1-0.2,0.2H120V32z"/>
		<path class="st21" d="M120,31.3h-12.2c-0.1,0.1-0.1,0.1-0.2,0.2H120V31.3z"/>
		<path class="st21" d="M120,30.6h-11.4c-0.1,0.1-0.2,0.1-0.2,0.2H120V30.6z"/>
		<path class="st21" d="M120,30h-10.3c-0.1,0.1-0.2,0.1-0.3,0.2H120V30z"/>
		<path class="st21" d="M120,29.3h-9.1c-0.1,0.1-0.2,0.1-0.3,0.2h9.4V29.3z"/>
		<path class="st21" d="M120,28.6h-7.4c-0.2,0.1-0.3,0.1-0.5,0.2h7.9V28.6z"/>
		<path class="st21" d="M120,28.1c-0.2,0-0.4-0.1-0.5-0.1h-4.1c-0.3,0-0.7,0.1-1,0.2L120,28.1L120,28.1z"/>
	</g>
	<g class="st22">
		<path class="st18" d="M95.8,85l2.5-2.5c0.2-0.3,0.5-0.7,0.7-1L95.5,85H95.8z"/>
		<path class="st18" d="M94.6,85l5.5-5.6c0.1-0.2,0.2-0.4,0.3-0.6L94.4,85H94.6z"/>
		<path class="st18" d="M93.5,85l7.5-7.6c0.1-0.1,0.1-0.3,0.2-0.4l-8,8H93.5z"/>
		<path class="st18" d="M92.3,85l9.2-9.3c0-0.1,0.1-0.3,0.1-0.4L92.1,85H92.3z"/>
		<path class="st18" d="M91.2,85l10.7-10.8c0-0.1,0-0.2,0.1-0.3L90.9,85H91.2z"/>
		<path class="st18" d="M90.1,85l12-12.1c0-0.1,0-0.2,0-0.3L89.8,85H90.1z"/>
		<path class="st18" d="M88.9,85l13.2-13.4c0-0.1,0-0.2,0-0.3L88.6,85H88.9z"/>
		<path class="st18" d="M87.8,85l14.4-14.5c0-0.1,0-0.2,0-0.3L87.5,85H87.8z"/>
		<path class="st18" d="M86.6,85l15.5-15.6c0-0.1,0-0.2,0-0.3L86.3,85H86.6z"/>
		<path class="st18" d="M85.5,85L102,68.3c0-0.1,0-0.2,0-0.3L85.2,85H85.5z"/>
		<path class="st18" d="M84.3,85l17.5-17.7c0-0.1,0-0.2,0-0.2L84,85H84.3z"/>
		<path class="st18" d="M83.2,85l18.4-18.6c0-0.1,0-0.2-0.1-0.2L82.9,85H83.2z"/>
		<path class="st18" d="M82,85l19.4-19.5c0-0.1,0-0.1-0.1-0.2L81.7,85H82z"/>
		<path class="st18" d="M80.9,85l20.2-20.4c0-0.1,0-0.1-0.1-0.2L80.6,85H80.9z"/>
		<path class="st18" d="M79.7,85l21-21.2c0-0.1-0.1-0.1-0.1-0.2L79.5,85H79.7z"/>
		<path class="st18" d="M78.6,85l21.8-22c0-0.1-0.1-0.1-0.1-0.2L78.3,85H78.6z"/>
		<path class="st18" d="M77.5,85l22.6-22.8c0-0.1-0.1-0.1-0.1-0.2L77.2,85H77.5z"/>
		<path class="st18" d="M76.3,85l23.4-23.6c0-0.1-0.1-0.1-0.1-0.2L76,85H76.3z"/>
		<path class="st18" d="M75.2,85l24.1-24.3c0,0,0,0,0,0c0,0-0.1-0.1-0.1-0.1L74.9,85H75.2z"/>
		<path class="st18" d="M74,85l24.8-25c0-0.1-0.1-0.1-0.1-0.2L73.7,85H74z"/>
		<path class="st18" d="M72.9,85l25.4-25.6c0-0.1-0.1-0.1-0.1-0.2L72.6,85H72.9z"/>
		<path class="st18" d="M71.7,85l26.1-26.3c0-0.1-0.1-0.1-0.1-0.2L71.4,85H71.7z"/>
		<path class="st18" d="M70.6,85l26.7-26.9c0,0-0.1-0.1-0.1-0.2L70.4,84.9C70.5,84.9,70.5,85,70.6,85L70.6,85z"/>
		<path class="st18" d="M70,84.5l26.7-27c0,0-0.1-0.1-0.1-0.1l-26.7,27C69.9,84.4,69.9,84.4,70,84.5z"/>
		<path class="st18" d="M69.4,83.9l26.7-26.9c0,0-0.1-0.1-0.1-0.1L69.3,83.7C69.3,83.8,69.4,83.8,69.4,83.9z"/>
		<path class="st18" d="M68.9,83.3l26.6-26.9c-0.1,0-0.1-0.1-0.2-0.1L68.7,83.1C68.8,83.2,68.8,83.2,68.9,83.3z"/>
		<path class="st18" d="M68.4,82.6l26.5-26.8c-0.1,0-0.1-0.1-0.2-0.1L68.2,82.5C68.3,82.5,68.3,82.6,68.4,82.6z"/>
		<path class="st18" d="M67.9,82l26.4-26.6c-0.1,0-0.1-0.1-0.2-0.1L67.7,81.8C67.8,81.8,67.8,81.9,67.9,82z"/>
		<path class="st18" d="M67.3,81.1c0,0,0.1,0.1,0.1,0.1l26.1-26.4c-0.1,0-0.1-0.1-0.2-0.1L67.3,81.1C67.3,81.1,67.3,81.1,67.3,81.1z
			"/>
		<path class="st18" d="M67,80.6l25.9-26.1c-0.1,0-0.1-0.1-0.2-0.1l-25.8,26C66.9,80.4,66.9,80.5,67,80.6z"/>
		<path class="st18" d="M66.6,79.8l25.5-25.8C92,54,92,54,91.9,54L66.5,79.6C66.5,79.7,66.5,79.8,66.6,79.8z"/>
		<path class="st18" d="M66.2,79l25.2-25.4c-0.1,0-0.1-0.1-0.2-0.1L66.1,78.8C66.1,78.9,66.1,79,66.2,79z"/>
		<path class="st18" d="M65.8,78.2l24.7-24.9c-0.1,0-0.1-0.1-0.2-0.1L65.7,78C65.8,78.1,65.8,78.2,65.8,78.2z"/>
		<path class="st18" d="M65.5,77.4L89.7,53c-0.1,0-0.1-0.1-0.2-0.1L65.4,77.2C65.4,77.3,65.5,77.3,65.5,77.4z"/>
		<path class="st18" d="M65.2,76.5l23.6-23.8c-0.1,0-0.1,0-0.2-0.1L65.1,76.3C65.2,76.4,65.2,76.5,65.2,76.5z"/>
		<path class="st18" d="M65,75.6l23-23.2c-0.1,0-0.2,0-0.2-0.1l-22.8,23C64.9,75.5,64.9,75.6,65,75.6z"/>
		<path class="st18" d="M64.7,74.7L87,52.2c-0.1,0-0.2,0-0.2,0L64.7,74.5C64.7,74.5,64.7,74.6,64.7,74.7z"/>
		<path class="st18" d="M64.6,73.7l21.5-21.7c-0.1,0-0.2,0-0.3,0L64.5,73.5C64.5,73.6,64.6,73.6,64.6,73.7z"/>
		<path class="st18" d="M64.4,72.7L85,51.9c-0.1,0-0.2,0-0.3,0L64.4,72.4C64.4,72.5,64.4,72.6,64.4,72.7z"/>
		<path class="st18" d="M64.4,71.6L84,51.9c-0.1,0-0.2,0-0.3,0L64.4,71.3C64.4,71.4,64.4,71.5,64.4,71.6z"/>
		<path class="st18" d="M64.4,70.5l18.5-18.6c-0.1,0-0.2,0-0.3,0L64.4,70.2C64.4,70.3,64.4,70.4,64.4,70.5z"/>
		<path class="st18" d="M64.4,69.2l17.2-17.3c-0.1,0-0.2,0-0.3,0l-16.8,17C64.5,69,64.4,69.1,64.4,69.2z"/>
		<path class="st18" d="M64.6,67.9l15.7-15.8c-0.1,0-0.2,0-0.3,0.1L64.7,67.6C64.6,67.7,64.6,67.8,64.6,67.9z"/>
		<path class="st18" d="M64.9,66.5l14-14.1c-0.1,0-0.3,0.1-0.4,0.1L65,66.1C64.9,66.2,64.9,66.3,64.9,66.5z"/>
		<path class="st18" d="M65.3,64.9l11.9-12c-0.1,0-0.3,0.1-0.4,0.2L65.5,64.4C65.4,64.6,65.4,64.7,65.3,64.9z"/>
		<path class="st18" d="M66.1,63l9.3-9.4c-0.2,0.1-0.4,0.2-0.5,0.3l-8.5,8.5C66.3,62.6,66.2,62.8,66.1,63z"/>
		<path class="st18" d="M68.2,59.3c-0.2,0.3-0.5,0.7-0.7,1l5.2-5.3c-0.3,0.2-0.7,0.5-1,0.7L68.2,59.3z"/>
	</g>
	<g class="st22">
		<path class="st21" d="M78.8,11.8l3.5-3.6c0.2-0.3,0.5-0.7,0.7-1l-5.2,5.3C78.1,12.3,78.5,12.1,78.8,11.8z"/>
		<path class="st21" d="M75.7,13.7l8.5-8.5c0.1-0.2,0.2-0.4,0.3-0.6L75.2,14C75.4,13.9,75.5,13.8,75.7,13.7z"/>
		<path class="st21" d="M73.7,14.6L85.1,3.2c0.1-0.1,0.1-0.3,0.2-0.4l-11.9,12C73.4,14.7,73.6,14.7,73.7,14.6z"/>
		<path class="st21" d="M72.1,15.1L85.6,1.5c0-0.1,0.1-0.3,0.1-0.4l-14,14.1C71.8,15.2,71.9,15.2,72.1,15.1z"/>
		<path class="st21" d="M85.6,0L70.2,15.5c0.1,0,0.2,0,0.3-0.1L85.9,0c0,0,0,0,0,0H85.6z"/>
		<path class="st21" d="M84.5,0L68.9,15.7c0.1,0,0.2,0,0.3,0L84.8,0H84.5z"/>
		<path class="st21" d="M83.3,0L67.7,15.7c0.1,0,0.2,0,0.3,0L83.6,0H83.3z"/>
		<path class="st21" d="M82.2,0L66.6,15.7c0.1,0,0.2,0,0.3,0L82.5,0H82.2z"/>
		<path class="st21" d="M81,0L65.5,15.7c0.1,0,0.2,0,0.3,0L81.3,0H81z"/>
		<path class="st21" d="M79.9,0L64.5,15.5c0.1,0,0.2,0,0.3,0L80.2,0H79.9z"/>
		<path class="st21" d="M78.8,0L63.5,15.4c0.1,0,0.2,0,0.2,0L79,0H78.8z"/>
		<path class="st21" d="M77.6,0l-15,15.1c0.1,0,0.2,0,0.2,0.1L77.9,0H77.6z"/>
		<path class="st21" d="M76.5,0L61.7,14.9c0.1,0,0.1,0,0.2,0.1L76.7,0H76.5z"/>
		<path class="st21" d="M75.3,0L60.8,14.6c0.1,0,0.1,0.1,0.2,0.1L75.6,0H75.3z"/>
		<path class="st21" d="M74.2,0L60,14.3c0.1,0,0.1,0.1,0.2,0.1L74.5,0H74.2z"/>
		<path class="st21" d="M73,0L59.2,13.9c0.1,0,0.1,0.1,0.2,0.1L73.3,0H73z"/>
		<path class="st21" d="M71.9,0L58.5,13.5c0.1,0,0.1,0.1,0.2,0.1L72.2,0H71.9z"/>
		<path class="st21" d="M70.7,0l-13,13.1c0.1,0,0.1,0.1,0.2,0.1L71,0H70.7z"/>
		<path class="st21" d="M69.6,0L57,12.7c0.1,0,0.1,0.1,0.2,0.1L69.9,0H69.6z"/>
		<path class="st21" d="M68.4,0L56.3,12.2c0.1,0,0.1,0.1,0.2,0.1L68.7,0H68.4z"/>
		<path class="st21" d="M67.3,0L55.7,11.7c0.1,0,0.1,0.1,0.2,0.1L67.6,0H67.3z"/>
		<path class="st21" d="M66.2,0L55,11.2c0.1,0,0.1,0.1,0.2,0.1L66.4,0H66.2z"/>
		<path class="st21" d="M65,0L54.4,10.7c0,0,0.1,0.1,0.1,0.1L65.3,0H65z"/>
		<path class="st21" d="M63.9,0l-10,10.1c0,0,0.1,0.1,0.1,0.1L64.1,0H63.9z"/>
		<path class="st21" d="M62.7,0l-9.4,9.5c0,0.1,0.1,0.1,0.1,0.2L63,0H62.7z"/>
		<path class="st21" d="M61.6,0l-8.8,8.9c0,0.1,0.1,0.1,0.1,0.2l9-9H61.6z"/>
		<path class="st21" d="M60.4,0l-8.2,8.2c0,0.1,0.1,0.1,0.1,0.2L60.7,0H60.4z"/>
		<path class="st21" d="M59.3,0l-7.5,7.6c0,0.1,0.1,0.1,0.1,0.2L59.6,0H59.3z"/>
		<path class="st21" d="M58.1,0l-6.8,6.9c0,0,0,0,0,0c0,0,0.1,0.1,0.1,0.1l7-7H58.1z"/>
		<path class="st21" d="M57,0l-6.1,6.1c0,0.1,0.1,0.1,0.1,0.2L57.3,0H57z"/>
		<path class="st21" d="M55.8,0l-5.4,5.4c0,0.1,0.1,0.1,0.1,0.2L56.1,0H55.8z"/>
		<path class="st21" d="M54.7,0l-4.6,4.6c0,0.1,0.1,0.1,0.1,0.2L55,0H54.7z"/>
		<path class="st21" d="M53.5,0l-3.8,3.8c0,0.1,0.1,0.1,0.1,0.2l4-4H53.5z"/>
		<path class="st21" d="M52.4,0l-3,3c0,0.1,0.1,0.1,0.1,0.2L52.7,0H52.4z"/>
		<path class="st21" d="M51.3,0l-2.1,2.1c0,0.1,0,0.1,0.1,0.2L51.5,0H51.3z"/>
		<path class="st21" d="M50.1,0l-1.2,1.2c0,0.1,0,0.2,0.1,0.2L50.4,0H50.1z"/>
		<path class="st21" d="M49,0l-0.2,0.2c0,0.1,0,0.2,0,0.2L49.3,0H49z"/>
	</g>
	<g class="st22">
		<path class="st18" d="M40.7,85l0.8-0.8c0-0.1-0.1-0.1-0.1-0.2l-1,1H40.7z"/>
		<path class="st18" d="M39.5,85l1.6-1.6c0-0.1-0.1-0.1-0.1-0.2L39.3,85H39.5z"/>
		<path class="st18" d="M38.4,85l2.4-2.4c0-0.1-0.1-0.1-0.1-0.2L38.1,85H38.4z"/>
		<path class="st18" d="M37.2,85l3.1-3.2c0-0.1-0.1-0.1-0.1-0.2L37,85H37.2z"/>
		<path class="st18" d="M36.1,85l3.9-3.9c0,0,0,0,0,0c0,0-0.1-0.1-0.1-0.1l-4,4.1H36.1z"/>
		<path class="st18" d="M35,85l4.5-4.6c0-0.1-0.1-0.1-0.1-0.2L34.7,85H35z"/>
		<path class="st18" d="M33.8,85l5.2-5.3c0-0.1-0.1-0.1-0.1-0.2L33.5,85H33.8z"/>
		<path class="st18" d="M32.7,85l5.8-5.9c0-0.1-0.1-0.1-0.1-0.2l-6,6.1H32.7z"/>
		<path class="st18" d="M31.5,85l6.5-6.5c0,0-0.1-0.1-0.1-0.2L31.2,85H31.5z"/>
		<path class="st18" d="M30.4,85l7-7.1c0,0-0.1-0.1-0.1-0.1L30.1,85H30.4z"/>
		<path class="st18" d="M29.2,85l7.6-7.7c0,0-0.1-0.1-0.1-0.1L28.9,85H29.2z"/>
		<path class="st18" d="M28.1,85l8.2-8.2c-0.1,0-0.1-0.1-0.2-0.1L27.8,85H28.1z"/>
		<path class="st18" d="M26.9,85l8.7-8.7c-0.1,0-0.1-0.1-0.2-0.1L26.6,85H26.9z"/>
		<path class="st18" d="M25.8,85l9.2-9.2c-0.1,0-0.1-0.1-0.2-0.1L25.5,85H25.8z"/>
		<path class="st18" d="M24.6,85l9.6-9.7c-0.1,0-0.1-0.1-0.2-0.1L24.4,85H24.6z"/>
		<path class="st18" d="M23.5,85l10.1-10.1c-0.1,0-0.1-0.1-0.2-0.1L23.2,85H23.5z"/>
		<path class="st18" d="M22.4,85l10.5-10.6c-0.1,0-0.1-0.1-0.2-0.1L22.1,85H22.4z"/>
		<path class="st18" d="M21.2,85l10.8-10.9C32,74,31.9,74,31.9,74L20.9,85H21.2z"/>
		<path class="st18" d="M20.1,85l11.2-11.3c-0.1,0-0.1-0.1-0.2-0.1L19.8,85H20.1z"/>
		<path class="st18" d="M18.9,85l11.5-11.6c-0.1,0-0.1-0.1-0.2-0.1L18.6,85H18.9z"/>
		<path class="st18" d="M17.8,85l11.8-11.9c-0.1,0-0.1,0-0.2-0.1L17.5,85H17.8z"/>
		<path class="st18" d="M16.6,85l12.1-12.2c-0.1,0-0.2,0-0.2-0.1L16.3,85H16.6z"/>
		<path class="st18" d="M15.5,85l12.3-12.4c-0.1,0-0.2,0-0.2,0L15.2,85H15.5z"/>
		<path class="st18" d="M14.3,85l12.4-12.6c-0.1,0-0.2,0-0.3,0L14,85H14.3z"/>
		<path class="st18" d="M13.2,85l12.6-12.7c-0.1,0-0.2,0-0.3,0L12.9,85H13.2z"/>
		<path class="st18" d="M12,85l12.6-12.7c-0.1,0-0.2,0-0.3,0L11.8,85H12z"/>
		<path class="st18" d="M10.9,85l12.7-12.8c-0.1,0-0.2,0-0.3,0L10.6,85H10.9z"/>
		<path class="st18" d="M9.8,85l12.6-12.7c-0.1,0-0.2,0-0.3,0L9.5,85H9.8z"/>
		<path class="st18" d="M8.6,85L21,72.5c-0.1,0-0.2,0-0.3,0.1L8.3,85H8.6z"/>
		<path class="st18" d="M7.5,85l12.1-12.2c-0.1,0-0.3,0.1-0.4,0.1L7.2,85H7.5z"/>
		<path class="st18" d="M6.3,85L18,73.2c-0.1,0-0.3,0.1-0.4,0.2L6.2,84.8c0,0.1,0,0.1-0.1,0.2H6.3z"/>
		<path class="st18" d="M6.8,83.3l9.3-9.4c-0.2,0.1-0.4,0.2-0.5,0.3l-8.5,8.5C7,83,6.9,83.2,6.8,83.3z"/>
		<path class="st18" d="M9,79.7c-0.2,0.3-0.5,0.7-0.7,1l5.2-5.3c-0.3,0.2-0.7,0.5-1,0.7L9,79.7z"/>
	</g>
	<g class="st22">
		<path class="st18" d="M104.8,14.1v-3.3c0-0.3-0.1-0.5-0.1-0.8v4.8C104.8,14.6,104.8,14.3,104.8,14.1z"/>
		<path class="st18" d="M104.3,16.4V8.6c0-0.1-0.1-0.2-0.1-0.4v8.5C104.2,16.6,104.3,16.5,104.3,16.4z"/>
		<path class="st18" d="M103.8,17.7V7.3c0-0.1-0.1-0.2-0.1-0.3l0,11C103.7,17.9,103.8,17.8,103.8,17.7z"/>
		<path class="st18" d="M103.3,18.7V6.3c0-0.1-0.1-0.1-0.1-0.2v12.9C103.2,18.8,103.2,18.8,103.3,18.7z"/>
		<path class="st18" d="M102.8,19.5V5.4c0-0.1-0.1-0.1-0.1-0.2v14.4C102.7,19.6,102.7,19.6,102.8,19.5z"/>
		<path class="st18" d="M102.2,20.2V4.7c0-0.1-0.1-0.1-0.1-0.2v15.8C102.2,20.3,102.2,20.3,102.2,20.2z"/>
		<path class="st18" d="M101.7,20.8V4.1c0,0-0.1-0.1-0.1-0.1v17C101.6,20.9,101.7,20.9,101.7,20.8z"/>
		<path class="st18" d="M101.2,21.3V3.6c0,0-0.1-0.1-0.1-0.1v18C101.1,21.4,101.2,21.4,101.2,21.3z"/>
		<path class="st18" d="M100.7,21.8V3.1c0,0-0.1-0.1-0.1-0.1v18.9C100.6,21.9,100.6,21.9,100.7,21.8z"/>
		<path class="st18" d="M100.1,22.2V2.7c0,0-0.1-0.1-0.1-0.1v19.8C100.1,22.3,100.1,22.3,100.1,22.2z"/>
		<path class="st18" d="M99.6,22.6V2.3c0,0-0.1-0.1-0.1-0.1v20.5C99.5,22.7,99.6,22.7,99.6,22.6z"/>
		<path class="st18" d="M99.1,23V2c0,0-0.1-0.1-0.1-0.1V23C99,23,99.1,23,99.1,23z"/>
		<path class="st18" d="M98.6,23.3V1.7c0,0-0.1,0-0.1-0.1v21.7C98.5,23.3,98.5,23.3,98.6,23.3z"/>
		<path class="st18" d="M98.1,23.5V1.4c0,0-0.1,0-0.1-0.1v22.3C98,23.6,98,23.6,98.1,23.5z"/>
		<path class="st18" d="M97.5,23.8V1.2c0,0-0.1,0-0.1-0.1v22.7C97.5,23.8,97.5,23.8,97.5,23.8z"/>
		<path class="st18" d="M97,24v-23c0,0-0.1,0-0.1,0l0,23.1C96.9,24,97,24,97,24z"/>
		<path class="st18" d="M96.5,24.2V0.8c0,0-0.1,0-0.1,0v23.5C96.4,24.2,96.4,24.2,96.5,24.2z"/>
		<path class="st18" d="M96,24.3V0.6c0,0-0.1,0-0.1,0v23.8C95.9,24.3,95.9,24.3,96,24.3z"/>
		<path class="st18" d="M95.4,24.5v-24c0,0,0,0,0,0c0,0-0.1,0-0.1,0v24C95.4,24.5,95.4,24.5,95.4,24.5z"/>
		<path class="st18" d="M94.9,24.6V0.4c0,0-0.1,0-0.1,0v24.2C94.8,24.6,94.9,24.6,94.9,24.6z"/>
		<path class="st18" d="M94.4,24.6V0.3c0,0-0.1,0-0.1,0v24.4C94.3,24.7,94.4,24.7,94.4,24.6z"/>
		<path class="st18" d="M93.9,24.7V0.2c0,0-0.1,0-0.1,0v24.5C93.8,24.7,93.8,24.7,93.9,24.7z"/>
		<path class="st18" d="M93.4,24.7V0.2c0,0-0.1,0-0.1,0v24.6C93.3,24.7,93.3,24.7,93.4,24.7z"/>
		<path class="st18" d="M92.8,24.8V0.2c0,0-0.1,0-0.1,0v24.6C92.7,24.8,92.8,24.8,92.8,24.8z"/>
		<path class="st18" d="M92.3,24.7V0.2c0,0-0.1,0-0.1,0v24.6C92.2,24.7,92.3,24.7,92.3,24.7z"/>
		<path class="st18" d="M91.8,24.7V0.2c0,0-0.1,0-0.1,0v24.5C91.7,24.7,91.7,24.7,91.8,24.7z"/>
		<path class="st18" d="M91.3,24.7V0.3c0,0-0.1,0-0.1,0v24.4C91.2,24.6,91.2,24.7,91.3,24.7z"/>
		<path class="st18" d="M90.7,24.6V0.3c0,0-0.1,0-0.1,0v24.2C90.7,24.6,90.7,24.6,90.7,24.6z"/>
		<path class="st18" d="M90.1,24.5C90.2,24.5,90.2,24.5,90.1,24.5l0.1-24c0,0-0.1,0-0.1,0L90.1,24.5C90.1,24.5,90.1,24.5,90.1,24.5z
			"/>
		<path class="st18" d="M89.7,24.4V0.6c0,0-0.1,0-0.1,0v23.7C89.6,24.3,89.7,24.3,89.7,24.4z"/>
		<path class="st18" d="M89.2,24.2V0.7c0,0-0.1,0-0.1,0v23.4C89.1,24.2,89.1,24.2,89.2,24.2z"/>
		<path class="st18" d="M88.7,24V0.9c0,0-0.1,0-0.1,0v23C88.6,24,88.6,24,88.7,24z"/>
		<path class="st18" d="M88.1,23.8V1.1c0,0-0.1,0-0.1,0.1v22.6C88,23.8,88.1,23.8,88.1,23.8z"/>
		<path class="st18" d="M87.6,23.6V1.3c0,0-0.1,0-0.1,0.1v22.1C87.5,23.6,87.6,23.6,87.6,23.6z"/>
		<path class="st18" d="M87.1,23.3V1.6c0,0-0.1,0-0.1,0.1v21.6C87,23.3,87,23.3,87.1,23.3z"/>
		<path class="st18" d="M86.6,23V1.9c0,0-0.1,0.1-0.1,0.1v21C86.5,23,86.5,23,86.6,23z"/>
		<path class="st18" d="M86,22.7V2.2c0,0-0.1,0.1-0.1,0.1v20.3C86,22.7,86,22.7,86,22.7z"/>
		<path class="st18" d="M85.5,22.3l0-19.8c0,0-0.1,0.1-0.1,0.1v19.6C85.4,22.3,85.5,22.3,85.5,22.3z"/>
		<path class="st18" d="M85,21.9V3c0,0-0.1,0.1-0.1,0.1v18.7C84.9,21.9,85,21.9,85,21.9z"/>
		<path class="st18" d="M84.5,21.5v-18c0,0-0.1,0.1-0.1,0.1v17.8C84.4,21.4,84.4,21.4,84.5,21.5z"/>
		<path class="st18" d="M84,21V4c0,0-0.1,0.1-0.1,0.1v16.7C83.9,20.9,83.9,20.9,84,21z"/>
		<path class="st18" d="M83.4,20.4V4.6c0,0.1-0.1,0.1-0.1,0.2v15.5C83.3,20.3,83.4,20.3,83.4,20.4z"/>
		<path class="st18" d="M82.9,19.7V5.2c0,0.1-0.1,0.1-0.1,0.2l0,14.1C82.8,19.6,82.9,19.6,82.9,19.7z"/>
		<path class="st18" d="M82.4,18.9V6c0,0.1-0.1,0.1-0.1,0.2v12.4C82.3,18.8,82.3,18.8,82.4,18.9z"/>
		<path class="st18" d="M81.9,17.9V7c0,0.1-0.1,0.2-0.1,0.3v10.4C81.8,17.8,81.8,17.9,81.9,17.9z"/>
		<path class="st18" d="M81.3,16.7V8.2c0,0.1-0.1,0.2-0.1,0.4v7.8C81.3,16.5,81.3,16.6,81.3,16.7z"/>
		<path class="st18" d="M80.7,14.1c0,0.3,0.1,0.5,0.1,0.8v-4.8c-0.1,0.3-0.1,0.5-0.1,0.8V14.1z"/>
	</g>
</g>
</svg>
